<svg  version="1.0" xmlns="http://www.w3.org/2000/svg"
 width="1350.000000pt" height="1350.000000pt" viewBox="0 0 1350.000000 1350.000000"
 preserveAspectRatio="xMidYMid meet">
 <g transform="translate(0.000000,1350.000000) scale(0.100000,-0.100000)" fill="#ffffff" stroke="none">
 <path d="M3545 10084 c-672 -47 -847 -125 -929 -414 -75 -267 -95 -1766 -30 -2195 36 -231 115 -359 274 -443 96 -52 337 -94 635 -113 252 -15 796 -6 895 15 41 9 111 24 155 33 44 8 99 22 123 29 23 8 49 14 57 14 9 0 23 4 33 9 9 5 55 28 101 51 47 23 105 56 130 73 61 41 183 164 207 207 10 19 24 42 30 50 6 8 21 40 33 70 12 30 26 64 30 75 14 33 32 141 38 228 14 202 -74 443 -213 582 -77 77 -249 185 -296 185 -17 0 -48 25 -48 39 0 5 20 16 44 25 25 9 73 39 108 65 159 122 231 240 273 449 20 97 19 161 -4 268 -38 179 -87 272 -200 384 -75 74 -102 93 -201 142 -120 60 -177 83 -245 99 -22 5 -49 13 -60 18 -62 27 -502 73 -670 70 -44 -1 -165 -8 -270 -15z m527 -695 c36 -11 90 -35 119 -52 43 -26 59 -43 84 -92 75 -151 7 -310 -155 -357 -121 -35 -161 -41 -308 -46 -183 -5 -273 12 -319 61 l-28 28 0 172 c0 160 2 174 22 207 25 40 48 56 118 81 78 28 376 27 467 -2z m33 -1170 c150 -29 227 -75 270 -160 21 -40 25 -63 25 -132 0 -202 -106 -289 -401 -326 -111 -14 -183 -13 -299 3 -115 17 -182 46 -210 91 -18 30 -20 49 -20 247 l0 214 28 26 c29 27 88 46 167 52 88 7 378 -3 440 -15z"/>
 <path d="M6705 10094 c-11 -1 -92 -8 -180 -14 -279 -20 -446 -56 -585 -129 -52 -28 -163 -131 -194 -181 -49 -78 -116 -269 -116 -328 0 -17 -6 -64 -14 -104 -38 -188 -49 -392 -50 -853 0 -464 3 -517 50 -845 46 -319 133 -472 341 -597 30 -18 59 -33 64 -33 6 0 25 -6 42 -14 51 -22 134 -43 242 -63 146 -26 781 -26 965 0 328 47 481 97 556 180 19 21 46 63 61 95 22 50 26 71 27 172 1 118 -3 135 -53 239 -18 37 -87 111 -104 111 -6 0 -18 6 -26 14 -24 20 -142 46 -213 46 -34 0 -96 -7 -138 -14 -41 -8 -120 -22 -175 -31 -55 -9 -125 -21 -155 -27 -30 -5 -121 -12 -202 -15 -210 -8 -271 14 -322 117 -26 50 -42 130 -51 236 -4 61 -2 75 15 97 27 35 97 49 181 37 88 -12 469 -35 549 -32 211 8 343 64 398 171 45 86 47 285 5 366 -37 70 -112 126 -213 157 -74 24 -450 25 -585 3 -49 -8 -140 -15 -201 -15 -143 0 -150 5 -147 124 6 209 53 295 183 335 74 24 187 27 320 10 47 -6 141 -17 210 -26 69 -9 186 -18 260 -20 112 -4 144 -1 188 14 64 21 149 94 188 161 27 45 28 52 28 197 1 138 -1 153 -22 193 -82 154 -239 216 -612 242 -74 5 -187 14 -250 20 -107 9 -218 11 -265 4z"/>
 <path d="M8600 10081 c-116 -27 -181 -70 -252 -166 -60 -82 -86 -151 -122 -325 -38 -184 -47 -354 -53 -915 -7 -749 15 -1273 61 -1456 35 -143 113 -235 241 -285 73 -28 291 -28 355 1 85 37 160 105 196 177 60 122 59 114 58 378 -1 178 -6 270 -18 335 -9 50 -16 124 -16 165 0 41 -7 129 -15 195 -16 133 -20 405 -6 405 9 0 29 -32 81 -125 52 -94 156 -263 182 -296 15 -20 28 -40 28 -44 0 -3 24 -44 53 -91 28 -46 57 -92 62 -102 6 -9 28 -44 50 -77 22 -33 44 -68 50 -77 16 -28 133 -216 184 -296 25 -41 100 -146 167 -235 113 -153 190 -231 264 -272 110 -60 108 -59 256 -60 l141 0 68 35 c71 37 152 108 178 156 82 150 112 292 121 564 4 102 11 271 16 375 22 442 1 1329 -37 1605 -38 278 -116 381 -326 431 -96 23 -113 23 -207 3 -115 -25 -182 -67 -249 -158 -46 -63 -66 -123 -82 -246 -11 -93 -2 -297 30 -665 5 -55 12 -201 16 -325 4 -124 9 -234 12 -245 12 -45 -40 21 -103 130 -36 61 -69 117 -74 125 -6 8 -13 22 -17 30 -4 8 -9 17 -13 20 -5 4 -50 77 -103 165 -7 11 -24 39 -39 63 -16 24 -28 45 -28 47 0 3 -20 34 -45 71 -25 36 -45 68 -45 71 0 3 -12 22 -27 42 -16 20 -37 52 -47 71 -11 19 -35 59 -55 88 -55 81 -70 105 -81 127 -13 26 -33 59 -41 65 -3 3 -16 23 -29 45 -27 45 -128 182 -174 236 -79 91 -94 106 -131 135 -71 55 -135 87 -213 105 -94 22 -125 22 -222 0z"/>
 <path d="M8675 6434 c-106 -21 -138 -31 -192 -60 -132 -73 -204 -180 -250 -374 -57 -244 -81 -952 -57 -1720 19 -627 46 -791 147 -905 86 -98 264 -153 405 -125 128 25 237 93 282 177 12 21 25 45 29 53 18 33 34 88 43 150 11 75 2 447 -13 524 -5 28 -14 110 -19 181 -5 72 -14 162 -19 200 -12 79 -15 378 -4 388 6 7 24 -19 69 -101 14 -26 34 -60 45 -77 10 -16 23 -39 29 -50 6 -11 19 -33 30 -50 11 -16 23 -37 27 -45 4 -8 11 -19 16 -25 5 -5 28 -40 50 -77 23 -37 66 -107 96 -155 30 -48 73 -117 96 -153 23 -36 45 -72 49 -80 11 -23 24 -43 130 -205 55 -82 117 -177 138 -210 108 -165 276 -352 349 -386 109 -52 119 -54 259 -54 135 0 135 0 203 35 154 78 238 218 281 460 38 213 54 1307 28 1865 -21 450 -44 559 -144 689 -96 126 -341 165 -518 83 -60 -28 -153 -121 -185 -184 -56 -113 -63 -240 -35 -613 4 -63 13 -185 19 -270 6 -85 16 -209 21 -275 6 -66 10 -158 10 -204 l0 -84 -21 19 c-19 17 -119 177 -119 190 0 4 -13 26 -30 51 -16 24 -30 46 -30 48 0 2 -13 24 -30 48 -16 25 -30 49 -30 55 0 6 -4 12 -8 14 -5 2 -28 36 -53 76 -24 40 -52 85 -61 100 -10 15 -21 34 -25 42 -3 8 -9 17 -13 20 -3 3 -17 23 -30 45 -13 22 -49 78 -79 125 -61 93 -76 117 -88 140 -4 8 -11 20 -15 25 -18 22 -98 142 -117 176 -38 71 -188 265 -256 332 -86 85 -184 140 -287 161 -78 16 -87 17 -123 10z"/>
 <path d="M3235 6415 c-195 -19 -340 -49 -395 -84 -116 -72 -178 -149 -220 -271 -24 -69 -41 -198 -50 -375 -5 -99 -13 -279 -19 -400 -14 -276 -14 -675 -1 -910 6 -99 15 -268 20 -375 5 -107 13 -211 19 -230 6 -19 11 -47 11 -62 0 -57 72 -200 132 -264 91 -96 160 -131 338 -168 82 -17 225 -24 237 -12 4 4 11 119 15 254 4 136 12 288 17 337 6 50 11 132 11 184 0 51 5 158 11 237 16 191 9 215 -78 292 -75 66 -132 139 -158 202 -35 85 -21 458 30 819 8 57 18 107 21 112 9 15 41 10 48 -7 3 -9 6 -165 6 -348 l0 -333 25 -23 c25 -24 26 -24 44 -4 17 16 21 46 31 219 7 110 15 268 19 350 l6 150 27 3 c35 4 36 1 43 -313 7 -343 13 -403 37 -416 16 -9 25 -6 44 12 l24 22 0 329 c0 208 4 336 10 349 6 10 19 19 29 19 42 0 44 -18 52 -355 6 -265 11 -329 24 -354 16 -32 47 -41 62 -18 4 6 10 169 13 361 4 313 7 350 22 359 13 9 22 7 37 -7 16 -15 21 -31 21 -75 0 -31 5 -74 10 -96 5 -22 14 -98 20 -170 5 -71 14 -177 20 -235 11 -111 5 -271 -12 -330 -25 -86 -90 -173 -174 -231 -11 -8 -32 -32 -47 -54 -25 -37 -27 -47 -27 -150 0 -61 4 -146 10 -190 5 -44 14 -188 20 -320 11 -276 29 -564 35 -583 4 -11 27 -12 107 -7 57 4 117 11 133 15 17 5 64 14 105 19 77 11 182 31 189 37 5 5 19 139 31 309 5 77 14 163 20 190 5 28 11 127 12 221 l3 170 -60 66 c-60 67 -77 99 -111 218 -16 55 -19 100 -19 305 0 272 11 341 88 570 33 98 41 118 70 169 15 27 27 52 27 56 0 5 23 31 50 58 77 76 126 79 169 8 21 -33 21 -39 21 -868 0 -927 7 -1310 25 -1334 9 -13 15 -14 40 -3 162 71 413 294 516 459 68 108 127 232 162 340 80 244 104 499 76 799 -11 127 -49 292 -87 384 -7 16 -12 33 -12 38 0 10 -25 62 -105 219 -29 57 -124 180 -198 257 -134 139 -328 267 -489 323 -32 11 -66 24 -76 29 -181 93 -706 144 -1107 106z"/>
 <path d="M6470 6415 c-200 -19 -371 -56 -461 -101 -131 -64 -196 -117 -251 -204 -42 -67 -98 -184 -98 -206 0 -9 -7 -43 -15 -77 -51 -218 -75 -534 -75 -997 0 -380 13 -610 45 -801 8 -47 15 -97 15 -111 0 -63 72 -277 107 -319 7 -8 13 -20 13 -25 0 -17 134 -141 190 -177 94 -59 133 -71 380 -122 192 -39 667 -38 960 1 408 54 517 101 601 256 33 62 34 65 34 193 0 129 0 131 -35 199 -52 102 -91 137 -213 190 -48 21 -214 22 -295 2 -240 -60 -394 -79 -573 -74 -172 6 -201 16 -253 87 -42 57 -56 110 -62 246 -6 110 6 132 81 146 49 9 271 -1 445 -21 121 -14 211 -12 315 5 205 36 294 103 324 243 46 216 -41 388 -223 442 -65 19 -450 21 -576 3 -47 -7 -140 -14 -206 -15 -160 -4 -164 0 -164 121 1 87 17 178 40 222 58 109 127 134 355 125 189 -7 376 -23 423 -36 45 -12 314 -13 328 -1 5 5 27 14 48 21 50 16 127 93 154 153 32 71 43 167 30 261 -14 112 -48 177 -118 230 -79 59 -105 71 -195 89 -307 61 -755 83 -1075 52z"/>
 </g>
 </svg>
